<svg id="图层_1" data-name="图层 1" xmlns="http://www.w3.org/2000/svg" viewBox="0 0 522.4 522.74"><defs><style>.cls-1{fill:#251e1c;}</style></defs><path class="cls-1" d="M665.42,352.63a14.57,14.57,0,0,0-.27,1.44c-.06.79-.06,1.59,0,2.38a124.57,124.57,0,0,1-.85,13.65c-.41,3.79-.8,7.59-1.32,11.36-.83,5.94-1.89,11.84-3.14,17.7a255.4,255.4,0,0,1-11.25,38.16,263.36,263.36,0,0,1-137.75,146,257.14,257.14,0,0,1-49.23,16.43c-6,1.37-12.11,2.55-18.25,3.4-3.82.52-7.65,1-11.49,1.45-4.19.44-8.38.83-12.59,1.08A221.45,221.45,0,0,1,396,606c-3.61-.16-7.23-.31-10.83-.59s-7.41-.65-11.1-1.09c-3.93-.46-7.86-1-11.77-1.59-4.89-.78-9.75-1.74-14.58-2.81a260.29,260.29,0,0,1-112.57-56.18,261.75,261.75,0,0,1-64.66-82.38,256.8,256.8,0,0,1-20.66-57c-1.62-6.95-3-13.95-4-21-.64-4.46-1.13-8.95-1.61-13.43a254.14,254.14,0,0,1-1.06-34.46c.12-4.06.44-8.11.76-12.16.26-3.41.57-6.82,1-10.21.53-4.13,1.12-8.25,1.81-12.35a244.44,244.44,0,0,1,5.35-24.22,257,257,0,0,1,33.27-74,261.76,261.76,0,0,1,105.47-92.93,254,254,0,0,1,54.8-19.35c5.79-1.33,11.61-2.49,17.48-3.41,4-.63,8.05-1.13,12.08-1.59,3.84-.44,7.69-.81,11.54-1.08,3.51-.24,7-.29,10.55-.45a4.91,4.91,0,0,0,2.18-.28H409a14.41,14.41,0,0,0,1.6.26c3.27.14,6.53.25,9.8.4,1.83.08,3.66.19,5.49.37,3.35.32,6.7.66,10,1.08,3.78.47,7.56,1,11.32,1.59q9.24,1.53,18.33,3.75a257.22,257.22,0,0,1,59.6,22.48A263.23,263.23,0,0,1,646.88,248.06,256.52,256.52,0,0,1,659.8,290.5c1.23,5.81,2.29,11.66,3.11,17.54.54,3.83.93,7.67,1.35,11.52a126.54,126.54,0,0,1,.84,13.49c0,.84,0,1.69,0,2.53,0,.53.18,1.05.27,1.58ZM153.2,342.85a262.9,262.9,0,0,0,1.34,27.21c.4,3.65.79,7.29,1.31,10.92q1.46,10.08,3.76,20a246.41,246.41,0,0,0,20.16,55.93,252.77,252.77,0,0,0,148.07,127A244.43,244.43,0,0,0,355.43,591q8.67,1.74,17.44,2.84c3.34.43,6.7.74,10.05,1,3.9.32,7.81.66,11.72.77,7.33.21,14.67.26,22-.14,4.11-.23,8.21-.51,12.31-.91s8.07-.9,12.09-1.49c5-.73,10.06-1.65,15-2.69a243.53,243.53,0,0,0,38.68-11.53A252.85,252.85,0,0,0,642.41,424.05a245.05,245.05,0,0,0,8.14-30.72q1.73-8.74,2.81-17.61c.57-4.62,1-9.26,1.34-13.9.27-4.31.43-8.62.53-12.93.18-7.64-.12-15.26-.68-22.88-.36-4.85-.88-9.67-1.5-14.49q-1-7.74-2.54-15.39A243.53,243.53,0,0,0,640,258.83,252.62,252.62,0,0,0,467.77,102c-6.65-1.76-13.37-3.26-20.16-4.39-3.28-.54-6.55-1.06-9.84-1.52-2.94-.41-5.89-.78-8.85-1.07-3.15-.3-6.32-.52-9.49-.7-3.81-.21-7.62-.4-11.43-.48q-9.53-.21-19,.48c-3.21.23-6.43.38-9.63.73-4.33.47-8.65,1.06-13,1.67-6.48.9-12.88,2.18-19.25,3.68a251.13,251.13,0,0,0-132.44,80.25q-46.85,54.27-58.37,125.1-1.81,11.24-2.53,22.59C153.44,333.82,153.34,339.33,153.2,342.85Z" transform="translate(-143.02 -83.41)"/><path class="cls-1" d="M377.07,433.92c.38-.28.61-.46.85-.62a12.09,12.09,0,0,0,5.16-7.71,12.82,12.82,0,0,0-.24-6.76,9.42,9.42,0,0,0-1.37-2.79,6.73,6.73,0,0,0-4.54-2.82c-2.1-.33-4.2-.7-6.28-1.14A18.48,18.48,0,0,1,359,404.4a36.54,36.54,0,0,1-3.2-5.52c-.12-.25-.2-.53-.34-.92a24,24,0,0,1,2.77-.07h8.18l2.71,0a2.94,2.94,0,0,0,0-.8q-1.9-5.24-3.84-10.46a4.43,4.43,0,0,0-.41-.69l-2.22.13a28.63,28.63,0,0,1-8.85-.71,16.47,16.47,0,0,1-7.37-4,25,25,0,0,1-3.78-4.38c-1.58-2.35-3.08-4.74-4.61-7.11a4.83,4.83,0,0,1-.25-.63,4,4,0,0,1,1.62-.15l15.62-.05,2.6,0a2.94,2.94,0,0,0-.06-.79q-1.92-4.9-3.88-9.81a1.75,1.75,0,0,0-.18-.26,2.61,2.61,0,0,0-1.44-.14c-2.77,0-5.55,0-8.32-.08a34.42,34.42,0,0,1-8.77-1.48,19.34,19.34,0,0,1-10.41-7.51,42.77,42.77,0,0,1-3.82-6.88,2.94,2.94,0,0,1-.13-.61,4.26,4.26,0,0,1,.59-.15c.79-.06,1.58-.12,2.38-.15l13.08-.41,7.87-.29c.38,0,.75-.11,1.23-.18a6.37,6.37,0,0,0-.27-.93c-1.56-3.48-3.16-6.94-4.7-10.43a1.43,1.43,0,0,0-1.62-.95c-1.28.1-2.57.13-3.86.16a126.83,126.83,0,0,1-13.08-.24,35.49,35.49,0,0,1-7-1.22,19.61,19.61,0,0,1-9.38-6A44.45,44.45,0,0,1,301,313.7c-.58-1-1.12-2-1.68-2.95.35-.45.78-.3,1.14-.3l14.42-.06q7.51,0,15-.1a3.25,3.25,0,0,0,1.47-.19,1.83,1.83,0,0,0,0-.47l-3.58-9.5a3.3,3.3,0,0,0-1.72-.19c-4.07,0-8.13.08-12.2,0a53.19,53.19,0,0,1-13.48-2,26.75,26.75,0,0,1-13.62-9.1,52.52,52.52,0,0,1-4.56-6.78c-.09-.16-.14-.35-.26-.64a7.54,7.54,0,0,1,.75-.12c.6,0,1.19,0,1.79,0h61.12a24.66,24.66,0,0,1,17.61,6.72,42,42,0,0,1,6.51,7.51,84.91,84.91,0,0,1,7.06,12.72c.93,2,1.81,4.08,2.73,6.11.16.34.36.67.53,1,.5-.09.45-.45.51-.7q1.29-5.12,2.57-10.23c1.59-6.4,3.2-12.78,4.75-19.18a10.74,10.74,0,0,1,4.83-6.7,18.21,18.21,0,0,1,6.48-2.48,39.49,39.49,0,0,1,11.69-.38,55.14,55.14,0,0,1,14.27,3.36,35.89,35.89,0,0,1,8.16,4.22c.64.46,1.24,1,1.82,1.44-.16.58-.6.61-.95.74q-4.46,1.67-8.91,3.29L418.86,291c-.41.16-.79.35-1.25.56.14.4.23.73.36,1,3.49,8.23,9.48,21.52,10.25,22.74.48,0,.5-.43.63-.71,1.06-2.29,2.06-4.62,3.16-6.89a81.28,81.28,0,0,1,6.63-11.61,44.09,44.09,0,0,1,7.24-8.25,26.91,26.91,0,0,1,11.74-6.12,33.82,33.82,0,0,1,7.24-.66c1.33,0,2.67.05,4,.05h17.25l38.82.06c.49,0,1,0,1.58.05a3.94,3.94,0,0,1-.22.76,59.59,59.59,0,0,1-4,6.07,27.17,27.17,0,0,1-14.91,10,54.65,54.65,0,0,1-9.36,1.59,147.61,147.61,0,0,1-15.6.26H481a92.28,92.28,0,0,0-3.91,10c.2.4.58.33.91.34,1.43,0,2.87,0,4.31.05l25.13.09c.54,0,1.07,0,1.74.05a6.77,6.77,0,0,1-.29.78,56.66,56.66,0,0,1-5.22,8.12,20.69,20.69,0,0,1-8.2,6.47,26.13,26.13,0,0,1-6.74,1.74,110,110,0,0,1-17.22.47l-2.67-.09a.92.92,0,0,0-1,.56l-.25.54q-2.28,5-4.54,10c-.13.31-.22.64-.36,1a5.17,5.17,0,0,0,.68.28,2.31,2.31,0,0,0,.59,0l10.85.35,11.15.37c.59,0,1.17.11,1.87.17a4,4,0,0,1-.24.9c-.91,1.76-1.77,3.55-2.78,5.25A20,20,0,0,1,471.29,357a51.34,51.34,0,0,1-10.78,1c-1.34,0-2.68,0-4-.06-.49,0-1,0-1.41,0-.52.86-3.79,8.86-4.19,10.24a2.3,2.3,0,0,0,0,.6,4.61,4.61,0,0,0,1.79.17l16.21.06a6.57,6.57,0,0,1,1.84.12,4.43,4.43,0,0,1-.31.73c-1.65,2.54-3.25,5.1-5,7.57a25.83,25.83,0,0,1-3.12,3.58,16.29,16.29,0,0,1-9,4.55,29.83,29.83,0,0,1-7.55.38c-.68-.06-1.38,0-2.16,0a5,5,0,0,0-.4.7q-1.85,5-3.66,10.05a7.37,7.37,0,0,0-.2,1,18.12,18.12,0,0,0,3.5.13c1.14,0,2.28,0,3.42,0h3.28c1.12,0,2.24,0,3.47,0a5.16,5.16,0,0,1-.2.7,33.59,33.59,0,0,1-3.85,6.51A18.23,18.23,0,0,1,438,412.05c-2.12.46-4.27.83-6.42,1.17a6.46,6.46,0,0,0-4.43,2.73,9.29,9.29,0,0,0-1.24,2.35,12.84,12.84,0,0,0,2.2,12.73,17,17,0,0,0,2.29,2.1c.29.25.62.47.93.69a1.63,1.63,0,0,1-.13.49l-26.69,43.27c0,.07-.16.08-.3.15a2.86,2.86,0,0,1-.36-.41Q390.47,455.69,377.07,433.92Z" transform="translate(-143.02 -83.41)"/><path class="cls-1" d="M315.51,452.38l-3,3.56c-2.57-1.49-11.72-10.28-17.07-16.41a144.17,144.17,0,0,1-24.67-39.74,141.68,141.68,0,0,1-10.44-43.46,143.79,143.79,0,0,1,4.46-48.91c16.45-61,72-106.71,138.9-107s122.71,45,139.65,105.79a143.52,143.52,0,0,1,5,46.79,141.67,141.67,0,0,1-10.11,45.34,144.75,144.75,0,0,1-24.63,40.46C508.33,445,498.78,454.27,496,455.9a3.51,3.51,0,0,1-.41-.37c-.89-1.06-1.77-2.13-2.68-3.23a5.6,5.6,0,0,1,1.31-1.27,139.87,139.87,0,0,0,46.21-76.84c1-4.5,1.68-9.05,2.23-13.63a134.79,134.79,0,0,0,.74-22.27,137.46,137.46,0,0,0-13.76-54.06,140.26,140.26,0,0,0-81.31-71.56,133.94,133.94,0,0,0-21.45-5.32q-6.24-1-12.54-1.49a142.43,142.43,0,0,0-17.53-.18c-3,.13-5.93.47-8.88.79a126.82,126.82,0,0,0-20,3.83,140.2,140.2,0,0,0-96.34,91.81,133.3,133.3,0,0,0-5,20.79q-1.07,6.83-1.49,13.73c-.25,4-.27,7.93-.2,11.89s.38,7.72.8,11.57A134.7,134.7,0,0,0,270.26,383a138.82,138.82,0,0,0,34.93,59.67c2.95,3,6.05,5.86,9.27,8.59.31.25.6.52.89.79C315.41,452.06,315.42,452.17,315.51,452.38Z" transform="translate(-143.02 -83.41)"/><path class="cls-1" d="M223.44,286.07c.17,0,.29,0,.35-.08a4.89,4.89,0,0,0,1.76-3.78c-.09-4.11-.24-8.22-.4-12.33-.05-1.19-.19-2.38-.29-3.56a1.71,1.71,0,0,0-.51-1.2c-1.16-1-2.3-2-3.46-3.05a1.36,1.36,0,0,0-.37-.1c-.16.31-.34.65-.5,1-.67,1.38-1.29,2.79-2,4.14a14.36,14.36,0,0,1-1.37,1.93,3.42,3.42,0,0,1-.78.69,1.64,1.64,0,0,1-2.29-.18,1.49,1.49,0,0,1-.47-1.6,28,28,0,0,0,.53-7.25,14.85,14.85,0,0,0-.79-4.22,4.93,4.93,0,0,0-1.43-2.22c-.94-.81-1.87-1.62-2.79-2.45s-1.64-1.44-2.39-2.23a14.46,14.46,0,0,1-1.33-1.78,1.93,1.93,0,0,1-.08-2,4.66,4.66,0,0,1,1.74-2,7.36,7.36,0,0,1,3-1.14,10.69,10.69,0,0,1,5.15.3,3.16,3.16,0,0,0,3.32-.54c1.22-1,1.66-.86,2.44.45a21.53,21.53,0,0,1,1.94,4.49,4.84,4.84,0,0,0,3.6,3.6,1.77,1.77,0,0,0,1-1.81c0-1.83-.05-3.67,0-5.5s.08-4,.21-5.94a2.42,2.42,0,0,0-.76-2.11c-1.34-1.32-2.63-2.7-3.9-4.09a36,36,0,0,1-4.49-6.27,3.22,3.22,0,0,1-.25-2.84,7,7,0,0,1,1.72-2.75,11.43,11.43,0,0,1,3.25-2.32,34,34,0,0,1,3.7-1.54,2.48,2.48,0,0,0,1.55-1.45,12.41,12.41,0,0,0,.91-4.49,7.88,7.88,0,0,0,0-1.19,4.49,4.49,0,0,1,1.38-3.68,8.36,8.36,0,0,1,4.37,1.59,1.66,1.66,0,0,1,.6.82,7.52,7.52,0,0,1,.5,2,38.71,38.71,0,0,1-.1,4.31c-.15,1.67-.51,3.33-.67,5a38.71,38.71,0,0,0-.13,4.31,5.88,5.88,0,0,0,.46,2,3.08,3.08,0,0,0,2.71,2,2.46,2.46,0,0,0,.63-2.08,5.91,5.91,0,0,0-.82-2.68c-.42-.78-.86-1.55-1.28-2.31a5.7,5.7,0,0,1,1.13-2.76,18.9,18.9,0,0,1,8.19-6.44,5,5,0,0,1,3.91.17,2.94,2.94,0,0,1,1.7,2.45c.16,1,.2,2,.27,3,0,.45,0,.9,0,1.34a6.59,6.59,0,0,0,.22,1.16,4.14,4.14,0,0,0,1.63,2.22q7.5,5.48,15.27,10.59a6.76,6.76,0,0,1,2.28,2.47,20.9,20.9,0,0,1,2.12,5.21c.3,1.2.67,2.37,1,3.57a7.38,7.38,0,0,1,.15,4.24,3.17,3.17,0,0,1-1.45,2,1.43,1.43,0,0,1-1.67,0c-1-.69-2-1.34-2.93-2-4.57-3.24-9.12-6.51-13.7-9.73-2.15-1.51-4.34-3-6.53-4.42-.35-.23-.68-.56-1.14-.5-.26.3-.11.5.05.69.51.61,1.06,1.18,1.53,1.82a38.21,38.21,0,0,1,6.09,12c.29.94.43,1.93.64,2.9a1.81,1.81,0,0,1-.38,1.53,8,8,0,0,1-7.52,3.31c-1-.1-1.27-.45-1.38-1.43a4.7,4.7,0,0,1,0-.75,2,2,0,0,0-.47-1.37,21.07,21.07,0,0,0-1.82-2.15,43.9,43.9,0,0,0-4-3.37c-2.12-1.54-4.33-3-6.51-4.42a3.06,3.06,0,0,0-.48-.24c-.5.12-.53.5-.57.83a12.49,12.49,0,0,0,.16,4c.43,2,.79,4.09,1.42,6.07a31,31,0,0,1,1.35,8.47,3.85,3.85,0,0,0,1,2.54c2,2.25,4,4.55,6,6.81a12.73,12.73,0,0,1,1.65,2.28c.46.82,1,1.62,1.44,2.43a5.24,5.24,0,0,1,.93,2.3,5.93,5.93,0,0,0,.49,1.39,15.37,15.37,0,0,1,1.07,4.77,5.91,5.91,0,0,1-.05,1.33,3.86,3.86,0,0,1-.52,1.37,2,2,0,0,1-3.63-.22c-.21-.34-.33-.73-.51-1.08a26.11,26.11,0,0,0-5.51-7.69,5.41,5.41,0,0,0-1.58-1.23c-.38.07-.4.33-.47.57a14.28,14.28,0,0,0-.32,3.39c-.06,1.44-.11,2.87-.23,4.3a8.1,8.1,0,0,1-.39,1.74,3.59,3.59,0,0,1-1.12,1.72c-.88.72-1.74,1.47-2.64,2.17a4.37,4.37,0,0,1-2.25,1,3.35,3.35,0,0,0-2.25,1.16,5.55,5.55,0,0,0,.43.77c.82,1.06,1.63,2.12,2.48,3.15a26.3,26.3,0,0,1,2.46,3.54A153.08,153.08,0,0,0,245,317.78c.22.27.42.56.66.81,1.22,1.27,1.11,2.77.72,4.31a1.67,1.67,0,0,1-1,1.07,11.43,11.43,0,0,1-4.27,1.17,15,15,0,0,1-7.28-1.09,8.74,8.74,0,0,1-2.52-1.55,5.32,5.32,0,0,1-1.89-4.63,2.37,2.37,0,0,0-.35-1.54,2.62,2.62,0,0,1-.38-1.11c-.12-1.29-.67-2.47-.91-3.73a23.45,23.45,0,0,0-1-3.58c-1.14-3.11-2.35-6.2-3.53-9.31-1-2.63-2-5.27-3-7.9-.25-.65-.58-1.26-.88-1.88s-.75-1.51-1.09-2.28a4.81,4.81,0,0,1-.24-2.63c.09-.63.43-.87,1-.74A4.52,4.52,0,0,1,221,284c.58.46,1.13,1,1.7,1.44C222.94,285.68,223.21,285.89,223.44,286.07Z" transform="translate(-143.02 -83.41)"/><path class="cls-1" d="M616.58,242.78a4.35,4.35,0,0,1,2.82,2.11c.65.12,1.28.23,1.91.38s1.26.28,1.87.48c1.44.48,1.69.95,1.32,2.46a7.64,7.64,0,0,1-.52,1.55,2,2,0,0,0,.06,1.84c.26.53.45,1.1.66,1.65a5.75,5.75,0,0,1,.2.71,1.9,1.9,0,0,1-.76,2.1,10.55,10.55,0,0,1-2.82,1.62c-5.48,1.89-10.94,3.8-16.42,5.67a4.46,4.46,0,0,0-2.81,2.07,3,3,0,0,0,.31.5c.74.69.55,1.35.06,2.1a28.91,28.91,0,0,1-3.59,4.36,1.75,1.75,0,0,1-1.18.53,5.82,5.82,0,0,1-3.46-.61,24.62,24.62,0,0,1-2.74-1.77,10.06,10.06,0,0,0-3.15-1.59c-4.57-1.47-9.16-2.9-13.84-4-.24-.06-.48-.08-.74-.12-1.2,1.26-2.48,2.45-2.82,4.24,1.82,1.35,3.37,2.94,5,4.43a1.15,1.15,0,0,1,.36,1.21,4.45,4.45,0,0,1-.91,2,24.78,24.78,0,0,1-1.8,1.75,1.87,1.87,0,0,1-2.55.16,18.29,18.29,0,0,0-4.59-2.07,1.47,1.47,0,0,0-1.64.31l-.11.09a19.7,19.7,0,0,0-5.43,5.22c-1.31,1.61-2.7,3.17-4.11,4.7a12.42,12.42,0,0,1-3.14,2.48,5.18,5.18,0,0,1-3.12.75,2.23,2.23,0,0,1-1.67-.83,9.33,9.33,0,0,0-1.28-1.23,51.14,51.14,0,0,1-9.79-11.12,11.14,11.14,0,0,1-.66-1.16.61.61,0,0,1,.08-.54.59.59,0,0,1,.52-.14c.6.24,1.17.52,1.75.8,1.11.54,2.2,1.14,3.34,1.63a9,9,0,0,0,4.79.74,3.18,3.18,0,0,0,2-.86c1.06-1,2.23-2,3.28-3,.9-.91,1.71-1.92,2.53-2.91a3.17,3.17,0,0,0,.37-.7c-.69-.44-1.33-.81-1.93-1.24a20.5,20.5,0,0,0-7.92-3.22c-1.89-.39-3.79-.73-5.67-1.18-2.9-.7-3.48-1.18-4.93-3.8a23.09,23.09,0,0,1-2.57-7.1,23.82,23.82,0,0,1-.19-2.81,2.15,2.15,0,0,1,.81-1.83c.37-.32.73-.66,1.12-1a4.79,4.79,0,0,1,1.61,1.33,19.6,19.6,0,0,0,7,5.41,85.41,85.41,0,0,0,10.34,4.14c2.91,1,5.82,1.93,8.74,2.89a11.14,11.14,0,0,0,1.29.35l3.21.67c.33-.17.8-.44,1.28-.68s1.15-.58,1.75-.82a4.69,4.69,0,0,1,3.62.06,7.31,7.31,0,0,1,1.46.71,13.15,13.15,0,0,0,4.8,1.91c2.07.49,4.16.91,6.23,1.4a1.57,1.57,0,0,0,1.39-.25c.65-.44,1.36-.79,2-1.19l1-.61a32.08,32.08,0,0,0-15.15-6.2c-3.18-.47-6.38-.83-9.57-1.24-1.13-.15-2.25-.37-3.38-.48a3.92,3.92,0,0,1-1.89-.81,9.79,9.79,0,0,1-3.46-4.19,5.25,5.25,0,0,0-2.29-2.6,7.33,7.33,0,0,1-1.16-.92c-.11-.1-.08-.35-.14-.63a8.51,8.51,0,0,1,1.25,0,38,38,0,0,1,4.95,1c1.33.37,2.71.58,4.07.87,5.28,1.1,10.49,2.5,15.71,3.86l6,1.54a9.6,9.6,0,0,0,1,.13,12.3,12.3,0,0,0,1.1-1.88,3.65,3.65,0,0,1,1.66-1.84c.63-.38,1.31-.69,2-1l1.41-.77a6.43,6.43,0,0,0-.71-.44c-.6-.24-1.21-.43-1.8-.69a5.76,5.76,0,0,0-2.86-.62,6.51,6.51,0,0,1-1.61-.26c-1.12-.2-2.24-.38-3.36-.59a5.51,5.51,0,0,1-1.13-.36,1.53,1.53,0,0,1-.88-1c-.43-1.34-.26-1.66,1.09-1.67a15.74,15.74,0,0,0,3.56-.2,4.27,4.27,0,0,0,3.4-3,1.63,1.63,0,0,0,.07-1.15,2.61,2.61,0,0,1-.13-.73,1.22,1.22,0,0,1,.68-1.22,2.58,2.58,0,0,1,3,.3c.87.73,1.75,1.45,2.64,2.17.26.22.56.39.92.64.4-.74.78-1.41,1.13-2.1a1.87,1.87,0,0,0,0-1.45c-.14-.42-.28-.84-.43-1.27.58-1.12,2-1.15,2.76-2.09a4.12,4.12,0,0,1-1.16-2.3,4.48,4.48,0,0,1,0-1.32,5.83,5.83,0,0,1,.58-1.52,6.91,6.91,0,0,1,.9-1l1.52.76,9.79,5a10,10,0,0,1,.93.46,2.72,2.72,0,0,0,2.42.23c1.13-.34,2.27-.69,3.42-1,1.81-.5,3.61-1.06,5.45-1.44a16,16,0,0,1,3.25-.16,3,3,0,0,1,1.13.29c1.08.44,1.26.78,1.07,1.95a10.88,10.88,0,0,1-3.18,6.08,2.23,2.23,0,0,1-.75.43c-1,.37-2,.67-2.89,1.09A9.13,9.13,0,0,0,616.58,242.78Zm-11.75.68a3.69,3.69,0,0,1-2.21,1.37c-1.26.44-2.53.84-3.8,1.26-.37.13-.71.3-1.06.45a5.1,5.1,0,0,0-.4,1.9,3.45,3.45,0,0,0,3.08,1.55,1.39,1.39,0,0,1,1.51,1c-.57,1.46-2.11,2.14-2.94,3.38.36.65.68,1.25,1,1.87,1.22-.11,2.41-.15,3.57-.33a10,10,0,0,0,5.72-2.62c1.37-1.35,1.44-1.4.76-3.24A15.07,15.07,0,0,0,604.83,243.46Z" transform="translate(-143.02 -83.41)"/><path class="cls-1" d="M489.9,158.33a2.93,2.93,0,0,0,2,.25,25.53,25.53,0,0,0,4.51-.89c1.48-.41,3-.8,4.46-1.15a14.81,14.81,0,0,1,4.88-.17c.73.07.92.28,1,1a5.57,5.57,0,0,1-2.81,6.18,5.49,5.49,0,0,1-1.8.66c-4,.73-8,1.42-12,2.12l-3.7.69c-.27.48-.53.94-.79,1.42a48.56,48.56,0,0,1-5,7.88,42.39,42.39,0,0,1-3,3.31,21,21,0,0,1-8.35,5c-1.83.6-3.67,1.2-5.51,1.76a19.07,19.07,0,0,1-5.41.87c-2.13,0-4.26.16-6.39.15-1.58,0-3.17-.13-4.75-.25a13.43,13.43,0,0,1-1.56-.3c0-1.15,0-1.14.86-1.45,3.65-1.26,7.31-2.49,10.95-3.78a31.36,31.36,0,0,0,6.12-3,14.64,14.64,0,0,0,4.51-4.25,9.5,9.5,0,0,0,.55-1c0-.07,0-.19,0-.3a4,4,0,0,0-1.75,0c-3.1.41-6.13,1.15-9.18,1.76-2.38.48-4.76,1-7.17,1.26a50.93,50.93,0,0,1-5.93.08,3.34,3.34,0,0,1-1.95-.66c-1.12-.81-2.25-1.62-3.32-2.5s-2-1.78-3-2.68a3.71,3.71,0,0,1-.51-.54c-.36-.52-.68-1.08-1.05-1.6a7.28,7.28,0,0,1-1.22-2.52,2.81,2.81,0,0,1,1.49-3.38,4,4,0,0,1,3.56-.29,23,23,0,0,0,8,1.5,58.3,58.3,0,0,0,9.79-.49c4-.53,8-1,12.07-1.59,1.67-.24,3.32-.57,5-.88.53-.1,1.05-.29,1.58-.42a2.87,2.87,0,0,0,2.05-1.93A105.24,105.24,0,0,0,481,145.54c1.11-4.42,2.18-8.85,3.28-13.27.29-1.15.63-2.29.95-3.43a5.91,5.91,0,0,1,2.49-3.23,2.8,2.8,0,0,1,3.09-.13,7.57,7.57,0,0,1,2.26,1.91,37,37,0,0,1,4.84,6.93c.25.48.39,1,.9,1.34a6.17,6.17,0,0,1,.69,4,3.88,3.88,0,0,1-.7,1.29,2.53,2.53,0,0,1-.86.8,8.17,8.17,0,0,0-3,3.4,40.33,40.33,0,0,0-5,12.5C489.93,157.85,489.93,158.05,489.9,158.33Z" transform="translate(-143.02 -83.41)"/><path class="cls-1" d="M315.81,509.91c1.9.78,3.76,1.68,5.69,2.61-.23,3.69-.58,7.33-.88,11s-.61,7.31-.91,11-.59,7.3-.9,11.14c.3-.18.5-.23.58-.35.24-.37.44-.77.66-1.17q6.52-12.09,13-24.2c.24-.43.49-.85.75-1.31a10.56,10.56,0,0,1,2.68,1,10.75,10.75,0,0,1,2.59,1.19,7.58,7.58,0,0,1-.24.72c-2,4.4-21.7,44.2-22.42,45.25a32.92,32.92,0,0,1-6.4-2.88c.17-2.86.61-5.75.88-8.64s.63-5.82.95-8.72.65-5.71,1-8.57.62-5.79.93-8.69c-.48-.07-.55.25-.67.5q-1.75,3.62-3.53,7.21-4.79,9.83-9.58,19.64a5.57,5.57,0,0,1-.84,1.51,41.11,41.11,0,0,1-6.22-2.9,1.15,1.15,0,0,1,.08-.41q11.21-22.23,22.44-44.44A2.25,2.25,0,0,1,315.81,509.91Z" transform="translate(-143.02 -83.41)"/><path class="cls-1" d="M442.42,527.18a43.93,43.93,0,0,1,4.94-.8,2.26,2.26,0,0,1,.47,1.45c.45,3.68.86,7.38,1.31,11.07.34,2.85.71,5.7,1.05,8.55s.67,5.71,1,8.56.71,5.8,1.06,8.71c.4,3.34.79,6.69,1.18,10a1.55,1.55,0,0,1-.08.37,6.83,6.83,0,0,1-2.52.52,7.71,7.71,0,0,1-2.7.28l-2.4-4.59-2.4-4.62-2.4-4.61c-.82-1.59-1.63-3.17-2.46-4.76s-1.59-3.08-2.39-4.61-1.59-3.09-2.4-4.62-1.54-3.07-2.41-4.54c-.47.23-.35.55-.34.82q.18,2.9.39,5.78c.14,1.83.31,3.66.45,5.49.24,3.36.45,6.72.7,10.08s.51,6.52.75,9.78c.07.94.1,1.88.15,2.87a7.74,7.74,0,0,1-.89.27c-1.17.19-2.34.37-3.52.53-.53.07-1.07.08-1.63.12a4.32,4.32,0,0,1-.38-1.8c-.34-4.6-.66-9.2-1-13.79s-.71-8.89-1.06-13.34c-.24-3.21-.45-6.42-.7-9.64s-.5-6.42-.75-9.63c0-.39,0-.79-.07-1.23,1.17-.61,2.43-.42,3.63-.56s2.36-.22,3.45-.32a4.09,4.09,0,0,1,1.16,1.5q6.09,9.94,12.17,19.91a3,3,0,0,0,1.1,1.35,28.5,28.5,0,0,0-.27-3.59c-.11-1.14-.26-2.27-.38-3.4s-.24-2.37-.36-3.55-.23-2.27-.34-3.4-.24-2.37-.37-3.55-.27-2.26-.39-3.4S442.55,528.52,442.42,527.18Z" transform="translate(-143.02 -83.41)"/><path class="cls-1" d="M548.69,506.15,567.27,521c-.36.73-1,1-1.49,1.5s-1.12,1-1.69,1.46l-1.57,1.32a4.37,4.37,0,0,1-1.39-1q-7.74-6.39-15.46-12.8c-.41-.34-.84-.66-1.23-1a29.38,29.38,0,0,0-4.74,4.27A34.77,34.77,0,0,0,542,518c.81,1.13,1.64,2.24,2.47,3.35l2.37,3.24,2.47,3.35,2.41,3.28a15.32,15.32,0,0,1-2.36,2.65,31.51,31.51,0,0,1-2.42,2.47,1.38,1.38,0,0,1-.26,0,.35.35,0,0,1-.11-.1l-29.25-41a4.52,4.52,0,0,1-.23-.45c.3-.25.58-.52.89-.75,2.82-2,5.62-4.07,8.47-6a26,26,0,0,1,3.47-2A13.51,13.51,0,0,1,540,485.2a18.58,18.58,0,0,1,2.64,1,12,12,0,0,1,7,9.81,23.85,23.85,0,0,1-.7,9.13C548.91,505.41,548.82,505.69,548.69,506.15Zm-22.86-10.54a2.82,2.82,0,0,0,.26.47q4.56,6,9.13,12.07a4.46,4.46,0,0,0,.58.51,22.11,22.11,0,0,0,4.39-3.34,32.93,32.93,0,0,0,2.11-2.86,2.27,2.27,0,0,0,.32-.82,8,8,0,0,0-3.56-8.62,13.61,13.61,0,0,0-3.51-1.55,6.15,6.15,0,0,0-4.21.18,17.22,17.22,0,0,0-5.44,3.76S525.86,495.51,525.83,495.61Z" transform="translate(-143.02 -83.41)"/><path class="cls-1" d="M285.84,552.5a40,40,0,0,1-5.93-3.41c.95-2.25,2.07-4.45,3.1-6.68s2.12-4.46,3.11-6.67a62.42,62.42,0,0,0-8-5.75c-1.88,1.84-3.79,3.71-5.71,5.56s-3.73,3.68-5.61,5.45a34.93,34.93,0,0,1-5.06-3.83c.13-.55.62-.85,1-1.22q5.12-5.09,10.26-10.15l24-23.7c.35-.35.72-.67,1.05-1a54,54,0,0,1,7.16,4.27.78.78,0,0,1,.05.14.23.23,0,0,1,0,.14l-18.94,46a5.44,5.44,0,0,1-.27.54A2.52,2.52,0,0,1,285.84,552.5ZM289,528.83a2.53,2.53,0,0,0,.81-1.31l6.47-14.85c.11-.27.24-.54.33-.82.2-.57.11-.7-.67-1a2.8,2.8,0,0,0-.35.25Q289.26,517.52,283,524a.26.26,0,0,0-.06.13.65.65,0,0,0,0,.14A46.07,46.07,0,0,0,289,528.83Z" transform="translate(-143.02 -83.41)"/><path class="cls-1" d="M188.25,449.57c-.91-1.76-1.81-3.34-2.52-5,1-.72,43.5-22.59,45-23.2a9.09,9.09,0,0,1,1.38,2.36c.46.8.84,1.65,1.29,2.55-1.61,1-3.22,1.71-4.79,2.53s-3.17,1.64-4.75,2.46-3.09,1.58-4.62,2.38-3.19,1.56-4.78,2.53a16.47,16.47,0,0,0,1.28,2.71c.43.88.89,1.76,1.34,2.64l1.3,2.51c.45.88.89,1.77,1.35,2.65s.85,1.76,1.44,2.65c2.26-1,4.33-2.18,6.44-3.24s4.14-2.14,6.21-3.19,4.19-2.21,6.31-3.2a25.19,25.19,0,0,1,2.62,4.93,3.28,3.28,0,0,1-1.34.84l-27.6,14.2-14.67,7.54c-.43.22-.88.41-1.29.61a19,19,0,0,1-2.67-4.89,3.56,3.56,0,0,1,1.34-.83l18.22-9.4a3,3,0,0,0,1.34-.87c-.49-1.36-6-12-6.69-12.95a3.52,3.52,0,0,0-1.6.66q-9,4.59-18,9.22Z" transform="translate(-143.02 -83.41)"/><path class="cls-1" d="M362.63,543.29c-2-.34-4-.23-5.92-.62-.28-.46,0-.84,0-1.21a9.17,9.17,0,0,1,.11-1,12.25,12.25,0,0,0-.47-5.28,8.67,8.67,0,0,0-.87-1.88,4.65,4.65,0,0,0-3.05-2.2,8.52,8.52,0,0,0-8.7,2.86,14.5,14.5,0,0,0-2.35,3.6c-.86,1.84-1.71,3.69-2.43,5.58a68.17,68.17,0,0,0-3.32,11.39,24.68,24.68,0,0,0-.47,5.62,11.35,11.35,0,0,0,1.71,5.47,6.5,6.5,0,0,0,9.8,1.53,7.42,7.42,0,0,0,1.14-1.17,14.43,14.43,0,0,0,1.15-1.73,27.67,27.67,0,0,0,2.49-7c-.19-.42-.6-.47-1-.59l-5.36-1.74c-.38-.12-.74-.27-1.09-.39a14,14,0,0,1,1.39-4.78c1.16.18,10.34,3.12,12.27,3.93.26.43,0,.84-.09,1.26l-3.84,12.49c-.85,2.74-1.69,5.49-2.54,8.23-.14.46-.31.92-.5,1.47-.74-.22-1.39-.39-2-.61s-1.29-.46-1.95-.7c-.13-1.24.32-2.41.12-3.68a2.83,2.83,0,0,0-.58.15c-4.19,2.49-9.53,1.13-12.48-1.8a15.91,15.91,0,0,1-3.87-6.59,18.11,18.11,0,0,1-.76-6.46,39.44,39.44,0,0,1,1.36-8.35,65.33,65.33,0,0,1,4.15-11.43,31.28,31.28,0,0,1,4.2-6.64,16.85,16.85,0,0,1,9.21-5.64,13.77,13.77,0,0,1,6.19-.09,10,10,0,0,1,6.15,4.12,14.34,14.34,0,0,1,2.35,5.73,20.77,20.77,0,0,1,.07,7.54A6.22,6.22,0,0,1,362.63,543.29Z" transform="translate(-143.02 -83.41)"/><path class="cls-1" d="M392.34,530.38a56.83,56.83,0,0,1,5.73.19,11.51,11.51,0,0,1,.1,1.22c-.1,3.52-.22,7-.34,10.55-.05,1.44-.12,2.87-.17,4.31q-.27,7.88-.52,15.75c-.05,1.39-.08,2.77-.08,4.16a10.63,10.63,0,0,0,.68,3.79,7,7,0,0,0,5.41,4.58,8,8,0,0,0,4.26-.19,6.77,6.77,0,0,0,4.29-3.84,11.41,11.41,0,0,0,.94-4c.07-1.33.15-2.67.2-4,.14-4.56.26-9.11.4-13.67q.28-8.55.58-17.09c0-.24.05-.48.07-.7a16.24,16.24,0,0,1,5.63.09,2.14,2.14,0,0,1,.17,1.43c-.1,3.76-.22,7.53-.34,11.29-.22,7.19-.42,14.37-.67,21.55a20.3,20.3,0,0,1-1.08,6.42,21.23,21.23,0,0,1-1.16,2.57,10.45,10.45,0,0,1-7.79,5.38,20.53,20.53,0,0,1-8.26-.28,10.78,10.78,0,0,1-8-6.85,15.24,15.24,0,0,1-1.19-5.64c0-2.88.08-5.75.14-8.62,0-.6.07-1.19.09-1.79q.21-7,.41-14,.17-5.26.34-10.55C392.19,531.79,392.27,531.16,392.34,530.38Z" transform="translate(-143.02 -83.41)"/><path class="cls-1" d="M305,216.11a3.53,3.53,0,0,1,.7-2.2c3.21-5.18,6.42-10.36,9.56-15.59a152.88,152.88,0,0,0,7.43-14,16.53,16.53,0,0,0,1-2.8c1.13-4.41,2.26-8.83,3.44-13.22a7.64,7.64,0,0,1,1.35-2.94,2.21,2.21,0,0,1,3.13-.7c1.51.75,1.82.92,1.46,2.93a13.43,13.43,0,0,1-.92,2.65c-.47,1.15-1,2.27-1.5,3.4a6.46,6.46,0,0,0-.5,2.61c0,4.76-.27,9.51-.59,14.25a6.41,6.41,0,0,1-.11.88q-.66,3.28-1.33,6.55a3.62,3.62,0,0,1-.31,1,27.42,27.42,0,0,0-2.28,7c-.32,1.55-.47,3.13-.72,4.69a3.17,3.17,0,0,1-.33,1.12,13.74,13.74,0,0,0-1.43,4.2c-.24,1.11-.46,2.23-.74,3.34-.15.62-.42,1.21-.62,1.82a4.62,4.62,0,0,1-3,2.85,3,3,0,0,1-1.6,0,19.85,19.85,0,0,1-2.72-.73,40.59,40.59,0,0,1-8.57-4.4,1.29,1.29,0,0,1-.65-1.09C305,217.31,305,216.87,305,216.11Z" transform="translate(-143.02 -83.41)"/><path class="cls-1" d="M245.68,448.1l15.15,21.13a46.17,46.17,0,0,1-4.48,2.84c-1.12-1.3-2-2.68-3-4s-2-2.74-2.94-4.11l-2.86-4-2.89-4a3.61,3.61,0,0,0-.74.23q-6.06,3.75-12.12,7.53a4.29,4.29,0,0,0-.48.44,34.89,34.89,0,0,0,2,2.95c.71,1,1.44,2,2.16,3l2.08,2.9,2.17,3c.68,1,1.4,1.9,2.08,3-1.4,1.16-2.95,1.89-4.39,2.89-1.12-1.25-1.91-2.56-2.82-3.79s-1.79-2.49-2.69-3.74-1.71-2.43-2.6-3.62a34.88,34.88,0,0,0-2.74-3.66,2.45,2.45,0,0,0-.47.14l-14.39,8.94a1.84,1.84,0,0,0-.36.42c2,2.87,4.07,5.7,6.11,8.56l6.12,8.56a16.72,16.72,0,0,1-4.37,2.82l-.14,0a.34.34,0,0,1-.12-.09L203.85,475.3c-.15-.2-.28-.41-.41-.62a1.27,1.27,0,0,1-.06-.28C204.22,473.68,243.94,449,245.68,448.1Z" transform="translate(-143.02 -83.41)"/><path class="cls-1" d="M497.56,562.3c-2.05,1.07-4.05,2-6,3a1.21,1.21,0,0,1-.26-.1.31.31,0,0,1-.11-.09Q477.76,543.51,464.3,522a5.2,5.2,0,0,1-.26-.53s0-.1,0-.15a27.56,27.56,0,0,1,5.74-2.46c1.27,1.9,2.49,3.88,3.74,5.83l3.83,6,3.75,5.89c1.27,2,2.54,4,3.83,6s2.45,3.91,3.83,6c.2-1-.13-3.56-1-9.09-.48-2.93-.88-5.88-1.31-8.81s-.86-6-1.3-9-.87-5.86-1.3-8.74a29.2,29.2,0,0,1,5.48-2.49c.34.14.29.48.33.75.38,2.35.76,4.69,1.12,7q1,6.32,2,12.62.81,5.29,1.63,10.57T496,552C496.49,555.37,497,558.75,497.56,562.3Z" transform="translate(-143.02 -83.41)"/><path class="cls-1" d="M563.9,465.32l-2.07,4.91c-.56.31-.9,0-1.26-.08a11.11,11.11,0,0,0-5.86-.4,6.75,6.75,0,0,0-5.47,7.09A8.57,8.57,0,0,0,550,480a6.25,6.25,0,0,0,7,3.76,17.86,17.86,0,0,0,4.94-1.55c1.16-.56,2.3-1.16,3.45-1.73s2.05-1,3.09-1.47a13.16,13.16,0,0,1,7.11-1,21.06,21.06,0,0,1,5.89,1.48,13.1,13.1,0,0,1,8.38,10.7,14.09,14.09,0,0,1-4.11,12.63,13.53,13.53,0,0,1-9.23,3.89,17.3,17.3,0,0,1-6.42-.95,4.2,4.2,0,0,1-1.77-.9,13.93,13.93,0,0,1,1-2.57c.34-.82.72-1.62,1.12-2.51l1.65.34c.92.18,1.84.4,2.77.51a8.71,8.71,0,0,0,6.66-2,7,7,0,0,0,2.61-6.75,9.13,9.13,0,0,0-2.54-5.26,7.4,7.4,0,0,0-5-2.29,15.22,15.22,0,0,0-7.38,1.34c-1.49.66-3,1.4-4.43,2.1a23.43,23.43,0,0,1-4.86,1.79,14.56,14.56,0,0,1-6.63.07,11.07,11.07,0,0,1-7.47-5.44c-2.87-5.13-2.92-10.32.13-15.38a11.26,11.26,0,0,1,9.34-5.51,14.42,14.42,0,0,1,7.64,1.47C563.24,464.92,563.49,465.08,563.9,465.32Z" transform="translate(-143.02 -83.41)"/><path class="cls-1" d="M517.76,552.19a4.16,4.16,0,0,1-.43-.51q-12.47-21.37-25-42.83a5,5,0,0,1,.62-.48l20.67-11.15c.17-.09.35-.16.61-.28a48.67,48.67,0,0,1,2.7,4.38c-.34.6-.9.74-1.36,1q-6.92,3.76-13.85,7.5c-.48.26-.94.54-1.48.84a4.2,4.2,0,0,0,.27.72q3.57,6.17,7.18,12.33a1,1,0,0,0,1.87-.15l12.57-6.76c.47-.26,1-.49,1.41-.73a24.25,24.25,0,0,1,2.67,4.61c-.31.19-.63.41-1,.59l-12.94,7c-.47.25-1,.4-1.31.91.66,1.48,8.29,14.51,9,15.42a3.18,3.18,0,0,0,1.44-.62c5-2.7,10-5.42,15-8.13l1.41-.72a22.21,22.21,0,0,1,2.69,4.51c-.08.09-.16.24-.28.3Q529.09,546.07,517.76,552.19Z" transform="translate(-143.02 -83.41)"/><path class="cls-1" d="M228.35,414.31a4,4,0,0,1-.61.34c-1.31.46-2.62.89-3.93,1.35a2.28,2.28,0,0,1-1.16.11q-7-1.1-14.09-2.17c-4.2-.64-8.42-1.25-12.62-1.89-3.58-.54-7.14-1.1-10.72-1.65-2.05-.32-4.1-.64-6.16-.94a5.07,5.07,0,0,0-.79,0,2.14,2.14,0,0,0,.3,1.43q2.34,6.35,4.7,12.67c.67,1.81,1.35,3.62,2,5.44.11.31.19.65.28,1a19.63,19.63,0,0,1-4.89,1.84c-.49-.26-.51-.8-.68-1.24q-2.69-7.17-5.35-14.34-1.71-4.59-3.41-9.19c-.14-.37-.27-.74-.44-1.2a4.22,4.22,0,0,1,.73-.43c1.26-.45,2.53-.86,3.78-1.32a2.81,2.81,0,0,1,1.46-.15c4.1.64,8.21,1.29,12.32,1.92,3.57.54,7.15,1.06,10.72,1.61l10.71,1.65c3.37.52,6.75,1,10.13,1.52.09,0,.18,0,.29-.07.26-.33.06-.65-.06-1q-1.62-4.39-3.26-8.77l-2.89-7.8c-.09-.23-.15-.46-.22-.67a16.26,16.26,0,0,1,5-1.84,9.22,9.22,0,0,1,.44.89C223.46,400.33,228.08,413,228.35,414.31Z" transform="translate(-143.02 -83.41)"/><path class="cls-1" d="M580.5,413.82a23.93,23.93,0,0,1,1.51-5.25c8-.05,16.07.18,24.08.34.23-.58-.16-.75-.39-1-2.69-2.49-5.39-5-8.09-7.44l-7.34-6.74c-.21-.2-.42-.41-.65-.6a.88.88,0,0,1-.25-1.08c.28-.79.56-1.58.85-2.37.4-1.12.81-2.23,1.21-3.32.59,0,.85.43,1.17.72L610.44,403c1.63,1.46,3.26,2.9,4.87,4.37a6.79,6.79,0,0,0,2,1.26q6.9,2.93,13.78,5.91c.5.21,1,.45,1.46.66a25.79,25.79,0,0,1-1.8,5.25c-.45.13-.83-.13-1.23-.28-4.25-1.64-8.5-3.27-12.73-4.94a8,8,0,0,0-2.74-.54c-6.59-.14-13.17-.32-19.76-.47-3.27-.07-6.54-.11-9.8-.17-1,0-2.08-.08-3.12-.13A8.11,8.11,0,0,1,580.5,413.82Z" transform="translate(-143.02 -83.41)"/><path class="cls-1" d="M385.44,497.57c.44.29.7.49,1,.66.85.52,1.71,1,2.53,1.56a14.52,14.52,0,0,1,1.49,1.23,6,6,0,0,1,.88,7.84,8.46,8.46,0,0,1-2.8,2.62,15,15,0,0,1-5.4,2A27.48,27.48,0,0,1,368,511.76a13.65,13.65,0,0,1-3.81-2.27,7.93,7.93,0,0,1-2.82-4.43,6.19,6.19,0,0,1,1.38-5.55,9.7,9.7,0,0,1,3.44-2.54,16.44,16.44,0,0,1,3.81-1.22,9.18,9.18,0,0,0,.95-.36l-1.05-.78a28.89,28.89,0,0,1-2.7-2.08,5.31,5.31,0,0,1-.08-7.92,9.3,9.3,0,0,1,2.83-1.89,16.59,16.59,0,0,1,6.18-1.46A28.84,28.84,0,0,1,387.62,483a13.61,13.61,0,0,1,3.87,2.19,8.29,8.29,0,0,1,1.9,2.06,5.2,5.2,0,0,1-.25,6.12,8.26,8.26,0,0,1-3.07,2.53c-1,.47-2.12.82-3.19,1.21C386.47,497.29,386.05,497.39,385.44,497.57Zm-7.51,13.35a11.62,11.62,0,0,0,4.88-1.09,5.26,5.26,0,0,0,2.91-3.55,3.9,3.9,0,0,0-1.38-4.38,21.58,21.58,0,0,0-2.33-1.57,71.07,71.07,0,0,0-6.88-3.13,1.77,1.77,0,0,0-1.3,0,10.91,10.91,0,0,0-4,2.13,6.31,6.31,0,0,0-1.76,2.36,5.2,5.2,0,0,0,.88,5.8,9.07,9.07,0,0,0,3.92,2.58A17.67,17.67,0,0,0,377.93,510.92Zm-6.16-22.7a3.54,3.54,0,0,0,.77,2.6,7.44,7.44,0,0,0,2,1.75,43.19,43.19,0,0,0,6.82,3.28,1.38,1.38,0,0,0,1,.07,12.07,12.07,0,0,0,3.31-1.65,6.25,6.25,0,0,0,2.27-3.39,3.81,3.81,0,0,0-1-3.84,6.93,6.93,0,0,0-2.71-1.78,15.59,15.59,0,0,0-7.89-.84,6.67,6.67,0,0,0-2.89,1.09A3.76,3.76,0,0,0,371.77,488.22Z" transform="translate(-143.02 -83.41)"/><path class="cls-1" d="M352.74,155.41a4.73,4.73,0,0,1-.77-2.62c-.09-1-.06-2-.11-3s-.12-2.07-.21-3.11c-.08-.78-.1-.78-.75-1.63a5.91,5.91,0,0,0-.88.42c-.71.45-1.4.93-2.1,1.41a2.46,2.46,0,0,1-1.83.43,12.49,12.49,0,0,1-6.79-3.07,6.68,6.68,0,0,1-1.1-1.38,3,3,0,0,1-.27-3,2.46,2.46,0,0,0,.09-.29,3.46,3.46,0,0,1,2.5-2.67,6.6,6.6,0,0,0,2.8-1.86c2.48-2.56,5-5.07,7.56-7.56a8.46,8.46,0,0,1,6.63-2.41,5.65,5.65,0,0,1,2.9,1.05,12,12,0,0,1,4,5.21,3.17,3.17,0,0,1,.16,1.16,23.62,23.62,0,0,1-1,7.47,4.14,4.14,0,0,1-.13.43,25.27,25.27,0,0,1-1.2,3.66,22,22,0,0,1-2.16,3c-1.37,1.88-2.81,3.72-4.1,5.65A7.66,7.66,0,0,1,352.74,155.41Z" transform="translate(-143.02 -83.41)"/><path class="cls-1" d="M226.68,496.53c1.73,1,3.41,2.07,5.21,3.14-.13.39-.23.71-.32,1a6.93,6.93,0,0,0,1.76,7.12,9,9,0,0,0,2.38,1.76,6.06,6.06,0,0,0,5.44.22,12.18,12.18,0,0,0,2.91-1.77c1-.85,2-1.74,3-2.68q11.69-11.53,23.36-23.1c.35-.35.71-.68,1.06-1A30.58,30.58,0,0,1,276,485.7c-.28.31-.55.65-.85,1l-20.19,20c-1.34,1.32-2.67,2.66-4,4a27.68,27.68,0,0,1-5,3.94,15.52,15.52,0,0,1-5.08,2,10.35,10.35,0,0,1-5.71-.44,15.11,15.11,0,0,1-9.7-10.12,11.85,11.85,0,0,1,.69-8.69,3.29,3.29,0,0,1,.29-.52C226.42,496.7,226.51,496.66,226.68,496.53Z" transform="translate(-143.02 -83.41)"/><path class="cls-1" d="M415.31,513.16a9.83,9.83,0,0,1,.06-3.75c1,.17,1.89.37,2.82.49a20.66,20.66,0,0,0,9.53-.76,10.31,10.31,0,0,0,7.07-7.93,8.8,8.8,0,0,0,.14-1,1.7,1.7,0,0,0-.1-.42,2.14,2.14,0,0,0-1.28.31,20.69,20.69,0,0,1-5.29,1.41,25.61,25.61,0,0,1-9.15-.49,15.14,15.14,0,0,1-3.94-1.71c-5-3-4.78-9-2.68-12.08a12,12,0,0,1,5.74-4.53,21.11,21.11,0,0,1,10.5-1.29,18.87,18.87,0,0,1,5,1.26,11.65,11.65,0,0,1,7.34,9.53,20.86,20.86,0,0,1-1.21,11.08,14.11,14.11,0,0,1-5.29,6.64,20.44,20.44,0,0,1-8.81,3.32,43,43,0,0,1-7.86.28C417.09,513.46,416.26,513.29,415.31,513.16Zm11.11-14.65c1.25-.14,2.59-.21,3.9-.46s2.48-.66,3.72-1a1.4,1.4,0,0,0,1.16-1.49,17.13,17.13,0,0,0-.36-4.58,8,8,0,0,0-6.12-6.21,11.62,11.62,0,0,0-5.74,0c-2.93.72-5.27,2.44-5.62,6.07s.92,5.51,4,6.8a6.67,6.67,0,0,0,1.56.47C424.07,498.28,425.2,498.38,426.42,498.51Z" transform="translate(-143.02 -83.41)"/><path class="cls-1" d="M619.68,452.47c-.82,1.6-1.63,3.13-2.45,4.55a1.38,1.38,0,0,1-.27,0l-.15,0-.27-.12-.13-.07-.38-.23-38.69-22.75-.27-.14-.26-.13-.15,0c-.47.09-.57.52-.75.85-1.17,2.13-2.31,4.27-3.47,6.41-.23.42-.49.83-.79,1.32L567,439.4a2.61,2.61,0,0,1,.57-1.59q3.76-7,7.54-14c1.06-2,2.11-3.93,3.18-5.89.18-.34.4-.67.59-1a19.67,19.67,0,0,1,4.86,2.72c-.12.28-.23.59-.38.88-1.14,2.14-2.3,4.28-3.44,6.42-.23.43-.45.87-.66,1.28.27.63.84.78,1.29,1l20,11.76q8.85,5.21,17.68,10.41A4.59,4.59,0,0,1,619.68,452.47Z" transform="translate(-143.02 -83.41)"/><path class="cls-1" d="M281.36,489.35l5.09,4.29c-.05.64-.48.95-.78,1.32q-7.64,9.41-15.29,18.79l-13.88,17a3.88,3.88,0,0,1-1.11,1.17,38.32,38.32,0,0,1-5.18-4.35C260.54,514.92,270.88,502.21,281.36,489.35Z" transform="translate(-143.02 -83.41)"/><path class="cls-1" d="M472,570.07l-5.88,1.79a3,3,0,0,1-.61-1.42q-4.14-14.64-8.27-29.28Q455.14,533.59,453,526c-.11-.37-.17-.75-.27-1.21,2.05-.66,4-1.31,6-1.82a2.88,2.88,0,0,1,.29.45L472,569.29A7.08,7.08,0,0,1,472,570.07Z" transform="translate(-143.02 -83.41)"/><path class="cls-1" d="M605.57,474.05c-1.25,1.55-2.36,3-3.55,4.34-1.36-.63-41.8-26-42.71-26.8a23.52,23.52,0,0,1,3.41-4.29,3.73,3.73,0,0,1,1.41.73l28.46,17.83,11.58,7.27Z" transform="translate(-143.02 -83.41)"/><path class="cls-1" d="M476.74,463.39l2.27,1.74c.17,1.16-.91,29.67-1.09,32.15a22.88,22.88,0,0,1-4.57,2.85,14.88,14.88,0,0,1-.05-2.49c0-.85,0-1.69,0-2.53s0-1.59,0-2.38,0-1.69,0-2.53,0-1.68,0-2.52.06-1.69.08-2.53,0-1.59,0-2.38l0-2.53c0-.84,0-1.68,0-2.52l0-2.53c0-.79,0-1.59,0-2.38s0-1.67,0-2.51c-.69-.17-1.13.22-1.6.44-3.35,1.61-6.68,3.24-10,4.87l-6,2.91c-.35.17-.71.31-1.11.49a28.62,28.62,0,0,1-1.6-3.3,4.25,4.25,0,0,1,.43-.31Z" transform="translate(-143.02 -83.41)"/><path class="cls-1" d="M367,149.28a7.2,7.2,0,0,1,.92,3.1,16.75,16.75,0,0,1-.54,6.18,25.81,25.81,0,0,1-5.74,10.29,5.86,5.86,0,0,1-4.31,2,9.12,9.12,0,0,1-4.5-.77c-1.83-.87-3.61-1.84-5.42-2.76a1.13,1.13,0,0,1-.61-1c-.08-.93-.11-1.87-.16-2.74.68-.67,1.26-1.27,1.88-1.83a4.33,4.33,0,0,1,1-.63c1.12-.53,2.24-1.06,3.39-1.52a8.25,8.25,0,0,0,2.92-2c1-1.05,2-2.11,3-3.13s2.15-2.2,3.31-3.21a16,16,0,0,1,2.43-1.69A3,3,0,0,1,367,149.28Z" transform="translate(-143.02 -83.41)"/><path class="cls-1" d="M493.86,205.05a9.58,9.58,0,0,1-4.36-1,6.33,6.33,0,0,1-1.15-.68,1.38,1.38,0,0,1-.56-1.93c.2-.61.45-1.21.65-1.82a8.47,8.47,0,0,0-.07-4.55c-.18-.82-.41-1.63-.59-2.45-.11-.49-.21-1-.27-1.46a4.56,4.56,0,0,1,4.41-5.36,9.58,9.58,0,0,1,3.24.39,16.83,16.83,0,0,1,4.84,2.21,4.25,4.25,0,0,1,1.58,1.73,22.12,22.12,0,0,1,2.18,6.76,8.3,8.3,0,0,1,0,1.93,5.35,5.35,0,0,1-2.73,4.35A13.65,13.65,0,0,1,493.86,205.05Z" transform="translate(-143.02 -83.41)"/><path class="cls-1" d="M331.26,494.74a27.92,27.92,0,0,0,3.05,2c1,.64,2,1.26,3.07,1.93a8.87,8.87,0,0,1-1.3,2.42.77.77,0,0,1-.22,0,.35.35,0,0,1-.14,0L319.3,490.93a2.79,2.79,0,0,1-.32-.28,5.7,5.7,0,0,1,1.4-2.47c2.11,1.13,4.08,2.55,6.24,3.75a4.23,4.23,0,0,0,.51-.58q4.81-8.37,9.61-16.74c.12-.21.18-.45.31-.75-2-1.4-4.15-2.57-6.22-3.94a6.1,6.1,0,0,1,1.22-2.23l1.47.76a16.85,16.85,0,0,0,3.7,1.52,3.75,3.75,0,0,0,3.7-.91c.22-.2.45-.38.69-.59,1.18.68,2.31,1.36,3.45,2.17-1.58,2.77-3.1,5.43-4.63,8.08s-3.07,5.32-4.58,8S332.78,492,331.26,494.74Z" transform="translate(-143.02 -83.41)"/><path class="cls-1" d="M310.49,151.15c-1.28-.61-1.49-.85-1.28-2a2.24,2.24,0,0,0-.42-1.81q-.65-.9-1.35-1.77c-.43-.53-.91-1-1.36-1.56a7.39,7.39,0,0,1-1.85-3.66c-.22-1.36-.67-2.68-.91-4a5.12,5.12,0,0,1,1.41-4.22,1.06,1.06,0,0,1,.78-.3,34.41,34.41,0,0,1,9.16,1.72,13.48,13.48,0,0,1,3.43,1.73,6.46,6.46,0,0,1,2,2.18,3.72,3.72,0,0,1,.17,3.56,22.68,22.68,0,0,1-1.33,2.48,23.89,23.89,0,0,1-7.93,7.46C310.82,151,310.64,151.08,310.49,151.15Z" transform="translate(-143.02 -83.41)"/><path class="cls-1" d="M568,242a4.91,4.91,0,0,1,.09-3.44,14.41,14.41,0,0,1,.95-2.17,15.72,15.72,0,0,1,1.31-2.16,43.65,43.65,0,0,0,4.37-7.92,22.55,22.55,0,0,0,.93-2.81c.41-1.33.73-2.68,1.2-4a8.14,8.14,0,0,1,1.19-2.21,2.52,2.52,0,0,1,3.68-.17,1.11,1.11,0,0,1,.38.93,7.37,7.37,0,0,1-.2,1.76,3.82,3.82,0,0,0,0,2,26.63,26.63,0,0,1,.52,6.36,15.19,15.19,0,0,1-.72,4.23,36.07,36.07,0,0,1-2.06,5.41,9.54,9.54,0,0,1-5.13,4.71,6.9,6.9,0,0,1-4.8.2A17.6,17.6,0,0,1,568,242Z" transform="translate(-143.02 -83.41)"/><path class="cls-1" d="M312.1,176.45a4.34,4.34,0,0,1-2-1.53c-.69-.9-1.37-1.82-2-2.78a67.78,67.78,0,0,1-3.84-7.37,3.2,3.2,0,0,1-.28-1.58,5.31,5.31,0,0,1,3.68-5.08,8.36,8.36,0,0,1,7.15.6c.9.53,1.79,1.06,2.65,1.64a13.48,13.48,0,0,1,1.62,1.29,4,4,0,0,1,1.28,2.14,8,8,0,0,1-.54,5.36,14.41,14.41,0,0,1-5.83,6.17C313.42,175.67,312.78,176.05,312.1,176.45Z" transform="translate(-143.02 -83.41)"/><path class="cls-1" d="M193.65,273.42c-.34-.58-.63-1.1-1-1.6a2.83,2.83,0,0,0-2.29-1.4,13.82,13.82,0,0,1-6.67-2.27,10.43,10.43,0,0,1-3.53-3.73,8.17,8.17,0,0,1-1-4.58,1.47,1.47,0,0,1,1.86-1.39,6.36,6.36,0,0,1,1.42.39,4.86,4.86,0,0,0,3.32.14c1.63-.42,3.27-.75,4.93-1.05a8.06,8.06,0,0,1,3.81.14,4,4,0,0,1,2.6,2.26,6.1,6.1,0,0,1,.5,3.91c-.63,2.7-1.35,5.37-2.07,8C195.38,273.19,194.64,273.42,193.65,273.42Z" transform="translate(-143.02 -83.41)"/><path class="cls-1" d="M194,277.64l.32-.71a1.86,1.86,0,0,1,1.32-1.08,38.51,38.51,0,0,1,5.52-1.1c1.48-.2,3-.29,4.43-.52a5.49,5.49,0,0,1,6.11,4.23,12.32,12.32,0,0,1,.23,4.72c-.29,2.1-.76,4.18-1.16,6.27,0,.09-.11.16-.17.26a1.38,1.38,0,0,1-1.35-.39,11.43,11.43,0,0,1-1.31-1.2c-.42-.42-.8-.88-1.2-1.31a3.16,3.16,0,0,0-1.51-.9c-1.19-.33-2.37-.71-3.54-1.11a17.38,17.38,0,0,1-2.06-.83A9.92,9.92,0,0,1,194,277.64Z" transform="translate(-143.02 -83.41)"/><path class="cls-1" d="M563.73,232a11.35,11.35,0,0,1-.75,3.34A4.73,4.73,0,0,1,560.8,238c-.6.32-1.17.73-1.76,1.09a2.43,2.43,0,0,1-2.53.11c-.4-.2-.78-.42-1.19-.61a1.89,1.89,0,0,1-1.06-1.65,4.64,4.64,0,0,1,.43-2.6A16.62,16.62,0,0,1,556.1,232a19.91,19.91,0,0,1,4.24-4.11,1.14,1.14,0,0,1,1.61-.06,2.88,2.88,0,0,1,1.3,1.75C563.47,230.33,563.57,231.16,563.73,232Z" transform="translate(-143.02 -83.41)"/></svg>