<svg id="图层_1" data-name="图层 1" xmlns="http://www.w3.org/2000/svg" viewBox="0 0 613.65 154.58"><defs><style>.cls-1{fill:#251e1c;fill-rule:evenodd;}</style></defs><path class="cls-1" d="M590.25,580.51c-6.43-1.46-2.57-3.45-3.52-9-.82-4.75-5.07-9.46-4.9-13,.47-9.49,12.64-8.75,20-5.64,1.3.55,2.83,2.56,4.17,4.54,3.3,4.92,7.21,12,1.89,17.35C603.29,579.39,595.84,581.78,590.25,580.51Z" transform="translate(-146.82 -447.76)"/><path class="cls-1" d="M517.05,569.74l-.63-.26c.05-.72.11-1.44.18-2.06,2-.74,19.68-12,19.65-12.46,5.17-4,9.79-8.47,11.33-15-12.63,4-24.63,13-37.66,13.79-6-1.57-10.11-4.89-14.31-6.77,0-.31,0-.51-.05-.71-6.82-4.58-7.39-10.37.23-12.79,13.06,3.07,33.23-6.05,45.61-10.6,2.79-1.2,10.79-3.94,13-6.43,3.11-17.25,1.42-34.62,2.64-51.14,4.36-11.91,11.72-3.69,19,2.39.47,1,2.18,2.11,3.65,4.37l.71,0c3.07,5,3.93,7.31-1,11.91a63.69,63.69,0,0,0-4.79,26.45c9-1.18,14.57-9,25-9,2.45,4.85,2.09,9-2.56,12.93-7.65,3.54-15.93,6.71-24.58,10.52-2.11,8.71-5.72,19.35-12,26.38a57.45,57.45,0,0,1-6.48,5.72c-5.62,3.18-10.69,7.07-16.83,8.71C520.28,570.14,520.09,569.35,517.05,569.74Z" transform="translate(-146.82 -447.76)"/><path class="cls-1" d="M346.2,602.34c-6.63-3.06-12.65-11.07-16.24-16.06.61-1.77,1.21-3.55,1.93-5.23,15.63-11.7,31.12-22.58,45.28-36.54,4.29-6.6,9.9-13.49,14.5-20a2,2,0,0,1,.81-.26c0-.3,0-.5-.05-.71,4-3.11,5.69-3.93,9.07,1.18.27,4.27-7.42,8.84-9.83,12.87-3,7.65-6.4,15.42-10.31,23.23-1.25,1.4-1.25,1.4-6.26,9.59-4.2,3.22-9.8,11.74-12.14,16.9-4.94,2.86-7,11.57-13,14.6C348.64,602,347.42,602.16,346.2,602.34Z" transform="translate(-146.82 -447.76)"/><path class="cls-1" d="M438.52,547.54c-9.64-.42-12.38-6.58-17.64-12.18-.16-2.55,1.39-4.08,1.58-5.83,2.42-.56,2.42-.56,3.9-1.47,4.06-.56,5.5-.34,9.88-.61,5.55-1.26,19.77-11,24.53-6.84C461.5,532.32,448.74,544.15,438.52,547.54Z" transform="translate(-146.82 -447.76)"/><path class="cls-1" d="M364.44,529.06c-3.68-3.25-4.4-18.13-4.69-22.81,2.75-8.35,11.12-8.66,18.1-3.27,5.57,7.32,9.34,10.35,3.53,18.89C374.79,527.59,371.84,528,364.44,529.06Z" transform="translate(-146.82 -447.76)"/><path class="cls-1" d="M435.89,521.85c-1-4.54,5.25-14.23,3.47-16.57-2.33.35-4.73,1.22-7.17,1.37-5.8-2.81-12.18-9.87-9.86-15.33,4.3-4.87,2.64-3.64,9.36-4.06,6.37-2.84,12.75-5.59,19.22-8.35,10.82-2,15.79,3.93,16.45,14.51-1.92,6.87-6.5,12.26-11,17.65-5.73,3.12-10.94,6.61-16.15,10C438.72,521.27,437.31,521.56,435.89,521.85Z" transform="translate(-146.82 -447.76)"/><path class="cls-1" d="M376.71,491.2c-2.27-2-1.32-3.09-.11-5.11-.28-4.48-3-8.09-3.23-12.37,1.46-7.85-.05-10.72,6.46-14.5,5.05,2.24,22.69,11.26,18.5,21.13C393.5,486.47,383.71,490.35,376.71,491.2Z" transform="translate(-146.82 -447.76)"/><path class="cls-1" d="M158.82,602.34c-9.56-3.67-17.95-22.62-6.37-27.3a5.49,5.49,0,0,1,3.11-3.85c0-.3,0-.5,0-.71,9.28-9,15.4-21.55,23.21-31.47,2-3.78,3.09-7.4,7.38-8.48,2.15,1.9,1.41,6.2.8,9.49,1,.85,4.28.24,6.27-.39,6.45-5.58,14.87-10.46,21.31-16.34.32-2.87.65-5.73,1.09-8.49-4.5,1.09-19.3,4.55-15.76-3.79,5.55-2.17,14-7,17-12.93,1.45-6.07.62-12.82,3.7-17.17,6.19-3.23,13.59,4.63,14.82,11.35,2.5,4.42,10.28-1,.57,12.55-2,1.55-2,4.48-1.55,7.6l2.14.18A210.09,210.09,0,0,1,254,500.94c1.69-8.73,3.07-16,7.27-23.38,6-4.13,14.23.33,20.11,5,4.55-.28,7.37-2.19,11.45-5.18,1.59-.5,1.59-.5,4.64-.49,1.25,2.15,1.69,4.36,1.89,7.59-2.9,8.91-28.39,11.81-23.48,22.16,4.44-.27,6-5.14,7.59-8.39,5-2.64,15.77.55,21,4.38,5.82,7.05,1.3,9.46-5.12,13.92-.65.95-1.31,1.9-1.85,2.85-.44,14.23-.44,14.23-.25,33.5a33.51,33.51,0,0,1-7.78,11.95l0,.6-.7,0c-2.47,4.31-8.5,8.54-12.1,4.5-.08-15.82.83-32.21.3-47.29a1.72,1.72,0,0,0-.8.25c-1.14,7.68-8.87,22.16-15.47,26.94a12.54,12.54,0,0,1-12.9-8.33c.61-1.56,1.81-1.94,3.06-3,3.42-7,2.41-19.94,2.39-26.84-4.93.72-13.27,11.89-17,16.07-2.51,2-5,4-7.44,6-1.77,5.89-3.13,11.66-4.67,17.94-1.35,2.82-2.68,5.75-4,8.67l-.7,0c-2.3,3.89-9.78,14.1-14.24,7.68a19.84,19.84,0,0,1-.06-2.53c3.72-5.51,6.59-13.2,6.7-19.49-6.06,2-10.08,7.52-16.15,7.9a38.59,38.59,0,0,1-9.32-3c0-.3,0-.5,0-.71-1.48-.92-3-2.25-3.87-1.89-1.11,3.42-2.21,6.94-3.21,10.45a244.75,244.75,0,0,0-14.94,40.3C162,601.43,161.22,601.78,158.82,602.34Z" transform="translate(-146.82 -447.76)"/><path class="cls-1" d="M170.77,527c-1.89-2.72.42-6.31.53-9.47-3-8.94-5.33-15.59.39-23.15a22.57,22.57,0,0,1,2.72-.27c4.14,2.88,10,9.52,13.57,14.27C192.3,519.09,178.5,523.9,170.77,527Z" transform="translate(-146.82 -447.76)"/><path class="cls-1" d="M179.38,492.4c-2.29-.77-2.22-1.29-2.67-2.07,1.08-2.2,2.12-3.48,1.68-5.68-5.5-8.39-5.18-21.19,4.3-25.43,2.76.33,2.8,2.66,4.05,6.44,6.16,6,17.64,13.42,6.76,21.53C188.91,489.21,183.94,490.79,179.38,492.4Z" transform="translate(-146.82 -447.76)"/><path class="cls-1" d="M660,536.3c-8.71-2.71-7.06-17-5.59-22.81,6.36-4.06,14.72,4.36,15.18,11.85C668,533.57,668.06,534.78,660,536.3Z" transform="translate(-146.82 -447.76)"/><path class="cls-1" d="M707.16,602.34c-.31-.18-.53-.37-.74-.46-11.15.69-21.79-.38-31.78-3.92a3.66,3.66,0,0,1-.54-2.2c5.89-3.41,14.18-2.51,18.68-8.68.72-4.82,1.28-8.91.82-13.05-11.05.69-17,8.47-25.73,11.66-7.49.46-20.84-6.33-23-12.29,0-9.65,2-5.3,12.35-5.94,12.27-2.19,24.55-9.25,36.43-14.46,2.52-1.88,2.52-1.88,3.91-2.48,2.66-8,4.5-9.42,12.84-11,3.26-1.63,3.26-1.63,12.76-7.4.25-.93.5-1.86.85-2.79-14.44,1.71-26.12,13.4-37.65,21.13a19.44,19.44,0,0,1-14-1.16c-2.53.36-16.91,2.88-10-2.84,4.27-1.69,7.54-4.73,12.1-6.74,10.83-7.28,23.36-13.54,35-20.26a6.13,6.13,0,0,0-1.12-3.29,14.32,14.32,0,0,1,1.18-5.55c-2.2.74-2.81.58-3.22,2.23-6.93,3.07-9.9,9.35-15.7,2.7-1.55,6.09-5.87,10.32-11.95,10.7-6.2-3.17-6.33-13.52-7.45-18.33-.44-.58-1.3-4.59-3-9.26-2.79-5.72-8-12.1-4.53-17.29,4.4-2.71,6.17-3.74,9.9,2.23a53.23,53.23,0,0,1,10.49,10l.71,0c2,5.26,6.76,12.17,6.27,18.91,3.23-1.93,7.88-5.67,5.49-9.79-5.37-2.92-2.32-7.88,1.43-9.74a28.16,28.16,0,0,0,6.09-.18,2.4,2.4,0,0,0-.84-2.08c-4.47-1.55-3.62-2.62-2.43-6.24-5.2-1.92-7.17-7.38-5.17-11.26,15.12-3.79,15.12-3.79,22.2-6.06,4.72-5.88,9.82-21.94,19-18.95a20.51,20.51,0,0,1,4.27,14.67c-1.17,2.4-2.77,4.43-3.22,7.1a25.24,25.24,0,0,1,2.75,0c6.32-3.14,9.24-6.88,13,2.54,6.1,3.28,8.29,2.43,6,11.31-4.43,8.91-9.22,18.45-14.16,27.39a5.71,5.71,0,0,0-.13,1.23c1.14.23,2.27.47,3.41.8a79.41,79.41,0,0,1,.66,13.88c-3.82,5.62-8.6,5.61-14.65,6.39-7.7,3.83-14.62,7-21.88,11.32a11.06,11.06,0,0,0,.5,4.74c3.65-.12,7.42-.15,11.18-.19,4.13,2.69,3.79,10.23,1.22,14.66-4.24.56-6.75,1.13-10,2.85-.38,2.06-.76,4.11-1.13,6.27.29,8,4.45,27.35-7.44,29.21Zm23.65-98.78c3.73-3.79,6.34-7.51,6-12.67-3.12-2.75-8.53-3.12-11.78-2.92-.42,1.45-.42,1.45-4.15,8.38a11.48,11.48,0,0,0,1.15.54,3.74,3.74,0,0,0-1.09.47,2.49,2.49,0,0,0,.25.7c1.64.2,2.58-1.07,3.32-2.24,5.83-1,6,1.15,5.54,7.38A5.32,5.32,0,0,1,730.81,503.56Z" transform="translate(-146.82 -447.76)"/></svg>